<svg xmlns="http://www.w3.org/2000/svg" xmlns:xlink="http://www.w3.org/1999/xlink" version="1.1" width="548.41506pt" height="555pt" viewBox="0 0 548.41506 555">
<defs>
<clipPath id="clip_0">
<path d="M0 0H548.41506V555H0Z"/>
</clipPath>
<mask id="mask_1">
<g>
<clipPath id="clip_2">
<path transform="matrix(47.71602,0,0,47.71602,45.974626,386.27357)" d="M-.963505-8.09526H10.529806V3.536054H-.963505Z"/>
</clipPath>
<g clip-path="url(#clip_2)">
<path transform="matrix(47.71602,0,0,47.71602,45.974626,386.27357)" d="M2.450218-7.131755H7.116082V-.25H2.450218Z" fill="#ffffff"/>
</g>
</g>
"/>
</mask>
<clipPath id="clip_3">
<path transform="matrix(47.71602,0,0,47.71602,45.974626,386.27357)" d="M-.963505-8.09526H10.529806V3.536054H-.963505Z"/>
</clipPath>
<mask id="mask_4">
<g>
<clipPath id="clip_5">
<path transform="matrix(47.71602,0,0,47.71602,45.974626,386.27357)" d="M-.963505-8.09526H10.529806V3.536054H-.963505Z"/>
</clipPath>
<g clip-path="url(#clip_5)">
<path transform="matrix(47.71602,0,0,47.71602,45.974626,386.27357)" d="M2.450218-7.131755H7.116082V-.25H2.450218Z" fill="#ffffff"/>
</g>
</g>
"/>
</mask>
<clipPath id="clip_6">
<path transform="matrix(47.71602,0,0,47.71602,45.974626,386.27357)" d="M-.963505-8.09526H10.529806V3.536054H-.963505Z"/>
</clipPath>
<mask id="mask_7">
<g>
<clipPath id="clip_8">
<path transform="matrix(47.71602,0,0,47.71602,45.974626,386.27357)" d="M-.963505-8.09526H10.529806V3.536054H-.963505Z"/>
</clipPath>
<g clip-path="url(#clip_8)">
<path transform="matrix(47.71602,0,0,47.71602,45.974626,386.27357)" d="M2.450218-7.131755H7.116082V-.25H2.450218Z" fill="#ffffff"/>
</g>
</g>
"/>
</mask>
<clipPath id="clip_9">
<path transform="matrix(47.71602,0,0,47.71602,45.974626,386.27357)" d="M-.963505-8.09526H10.529806V3.536054H-.963505Z"/>
</clipPath>
<mask id="mask_10">
<g>
<clipPath id="clip_11">
<path transform="matrix(47.71602,0,0,47.71602,45.974626,386.27357)" d="M-.963505-8.09526H10.529806V3.536054H-.963505Z"/>
</clipPath>
<g clip-path="url(#clip_11)">
<path transform="matrix(47.71602,0,0,47.71602,45.974626,386.27357)" d="M2.450218-7.131755H7.116082V-.25H2.450218Z" fill="#ffffff"/>
</g>
</g>
"/>
</mask>
<clipPath id="clip_12">
<path transform="matrix(47.71602,0,0,47.71602,45.974626,386.27357)" d="M-.963505-8.09526H10.529806V3.536054H-.963505Z"/>
</clipPath>
<mask id="mask_13">
<g>
<clipPath id="clip_14">
<path transform="matrix(47.71602,0,0,47.71602,45.974626,386.27357)" d="M-.963505-8.09526H10.529806V3.536054H-.963505Z"/>
</clipPath>
<g clip-path="url(#clip_14)">
<path transform="matrix(47.71602,0,0,47.71602,45.974626,386.27357)" d="M2.450218-7.131755H7.116082V-.25H2.450218Z" fill="#ffffff"/>
</g>
</g>
"/>
</mask>
<clipPath id="clip_15">
<path transform="matrix(47.71602,0,0,47.71602,45.974626,386.27357)" d="M-.963505-8.09526H10.529806V3.536054H-.963505Z"/>
</clipPath>
<mask id="mask_16">
<g>
<clipPath id="clip_17">
<path transform="matrix(47.71602,0,0,47.71602,45.974626,386.27357)" d="M-.963505-8.09526H10.529806V3.536054H-.963505Z"/>
</clipPath>
<g clip-path="url(#clip_17)">
<path transform="matrix(47.71602,0,0,47.71602,45.974626,386.27357)" d="M2.450218-7.131755H7.116082V-.25H2.450218Z" fill="#ffffff"/>
</g>
</g>
"/>
</mask>
<clipPath id="clip_18">
<path transform="matrix(47.71602,0,0,47.71602,45.974626,386.27357)" d="M-.963505-8.09526H10.529806V3.536054H-.963505Z"/>
</clipPath>
<mask id="mask_19">
<g>
<clipPath id="clip_20">
<path transform="matrix(47.71602,0,0,47.71602,45.974626,386.27357)" d="M-.963505-8.09526H10.529806V3.536054H-.963505Z"/>
</clipPath>
<g clip-path="url(#clip_20)">
<path transform="matrix(47.71602,0,0,47.71602,45.974626,386.27357)" d="M2.450218-7.131755H7.116082V-.25H2.450218Z" fill="#ffffff"/>
</g>
</g>
"/>
</mask>
<clipPath id="clip_21">
<path transform="matrix(47.71602,0,0,47.71602,45.974626,386.27357)" d="M-.963505-8.09526H10.529806V3.536054H-.963505Z"/>
</clipPath>
<mask id="mask_22">
<g>
<clipPath id="clip_23">
<path transform="matrix(47.71602,0,0,47.71602,45.974626,386.27357)" d="M-.963505-8.09526H10.529806V3.536054H-.963505Z"/>
</clipPath>
<g clip-path="url(#clip_23)">
<path transform="matrix(47.71602,0,0,47.71602,45.974626,386.27357)" d="M2.450218-7.131755H7.116082V-.25H2.450218Z" fill="#ffffff"/>
</g>
</g>
"/>
</mask>
<clipPath id="clip_24">
<path transform="matrix(47.71602,0,0,47.71602,45.974626,386.27357)" d="M-.963505-8.09526H10.529806V3.536054H-.963505Z"/>
</clipPath>
</defs>
<g>
<g clip-path="url(#clip_0)">
<path transform="matrix(47.71602,0,0,47.71602,45.974626,386.27357)" d="M.4365 .1785C.5295 .1785 .5295 .1875 .5595 .2205 .585 .2505 .597 .2625 .6165 .2625 .6405 .2625 .657 .246 .657 .222V.039C.657 .015 .6405 0 .6165 0 .6075 0 .5925 .0015 .567 .0045 .537 .009 .498 .0135 .474 .0135H.198C.0915 .0135 .072 0 .048 0 .024 0 .015 .0105 .015 .0345V.231C.015 .249 .0255 .2625 .042 .2625 .063 .2625 .0765 .2475 .1095 .219 .1425 .1905 .1515 .1785 .2355 .1785V.9945C.2355 1.0545 .171 1.089 .171 1.1205 .171 1.134 .183 1.146 .204 1.146H.468C.489 1.146 .501 1.134 .501 1.1205 .501 1.089 .4365 1.0545 .4365 .9945M1.044597 .165C1.044597 .105 1.109097 .0705 1.109097 .039 1.109097 .0255 1.097097 .0135 1.076097 .0135H.812097C.791097 .0135 .779097 .0255 .779097 .039 .779097 .0705 .843597 .105 .843597 .165V.9945C.843597 1.0545 .779097 1.089 .779097 1.1205 .779097 1.134 .791097 1.146 .812097 1.146H1.076097C1.097097 1.146 1.109097 1.134 1.109097 1.1205 1.109097 1.089 1.044597 1.0545 1.044597 .9945M2.029212 .9945C2.029212 1.0545 1.964712 1.089 1.964712 1.1205 1.964712 1.134 1.976712 1.146 1.997712 1.146H2.254212C2.275212 1.146 2.287212 1.134 2.287212 1.1205 2.287212 1.089 2.222712 1.0545 2.222712 .9945V.162C2.222712 .102 2.287212 .0675 2.287212 .036 2.287212 .0225 2.275212 .0105 2.254212 .0105H2.060712C2.011212 .0105 1.993212 .048 1.985712 .0705L1.766712 .726 1.540212 .0525C1.532712 .03 1.522212 .0105 1.474212 .0105H1.279212C1.258212 .0105 1.246212 .0225 1.246212 .036 1.246212 .0675 1.310712 .102 1.310712 .162V.9945C1.310712 1.0545 1.246212 1.089 1.246212 1.1205 1.246212 1.134 1.258212 1.146 1.279212 1.146H1.535712C1.556712 1.146 1.568712 1.134 1.568712 1.1205 1.568712 1.089 1.504212 1.0545 1.504212 .9945V.5625L1.657212 1.008C1.661712 1.023 1.663212 1.035 1.663212 1.044 1.661712 1.068 1.633212 1.092 1.633212 1.1205 1.633212 1.134 1.645212 1.146 1.666212 1.146H1.865712C1.886712 1.146 1.898712 1.134 1.898712 1.1205 1.898712 1.092 1.868712 1.068 1.868712 1.044 1.868712 1.035 1.870212 1.023 1.874712 1.008L2.029212 .561M3.183967 .7425 3.282967 .321 3.354967 .651M3.635467 .9615C3.618967 .9015 3.434467 .165 3.434467 .1185 3.434467 .09 3.473467 .0585 3.473467 .0405 3.473467 .024 3.461467 .0135 3.440467 .0135H3.129967C3.108967 .0135 3.096967 .024 3.096967 .0405 3.096967 .0585 3.135967 .09 3.135967 .1185 3.135967 .165 2.931967 .966 2.919967 1.0125 2.906467 1.065 2.847967 1.095 2.847967 1.119 2.847967 1.1355 2.859967 1.146 2.880967 1.146H3.147967C3.171967 1.146 3.182467 1.134 3.182467 1.119 3.182467 1.095 3.128467 1.0755 3.128467 1.017V.9765L3.399967 .8295C3.399967 .8295 3.449467 1.032 3.449467 1.0425 3.449467 1.0785 3.410467 1.095 3.410467 1.119 3.410467 1.134 3.420967 1.146 3.444967 1.146H3.690967C3.711967 1.146 3.723967 1.1355 3.723967 1.119 3.723967 1.095 3.659467 1.053 3.635467 .9615M4.426577 .165C4.426577 .105 4.491077 .0705 4.491077 .039 4.491077 .0255 4.479077 .0135 4.458077 .0135H4.194077C4.173077 .0135 4.161077 .0255 4.161077 .039 4.161077 .0705 4.225577 .105 4.225577 .165V.9705C4.225577 .9765 4.221077 .981 4.215077 .981H4.051577C4.045577 .981 4.041077 .9765 4.041077 .9705V.165C4.041077 .105 4.105577 .0705 4.105577 .039 4.105577 .0255 4.093577 .0135 4.072577 .0135H3.808577C3.787577 .0135 3.775577 .0255 3.775577 .039 3.775577 .0705 3.840077 .105 3.840077 .165V1.0305C3.840077 1.1085 3.904577 1.146 3.982577 1.146H4.278077C4.369577 1.146 4.426577 1.083 4.426577 1.023M4.89372 .981V.7185C4.89372 .708 4.89822 .702 4.91022 .693L5.02422 .6165C5.02422 .6165 5.11722 .684 5.11722 .705V.96C5.11722 .975 5.11122 .981 5.09622 .981M5.05722 .1785C5.07522 .1785 5.07822 .1815 5.07822 .198V.36C5.07822 .3735 5.06772 .3885 5.05272 .399L4.89372 .498V.1785M5.17572 1.146C5.25222 1.146 5.31822 1.107 5.31822 1.0305V.6345C5.31822 .5745 5.24022 .531 5.19972 .5025 5.22972 .477 5.27922 .441 5.27922 .387V.1575C5.27922 .066 5.22672 .0135 5.11572 .0135H4.66122C4.64022 .0135 4.62822 .0255 4.62822 .039 4.62822 .0705 4.69272 .105 4.69272 .165V.9945C4.69272 1.0545 4.62822 1.089 4.62822 1.1205 4.62822 1.134 4.64022 1.146 4.66122 1.146M6.088376 .165C6.088376 .105 6.152876 .0705 6.152876 .039 6.152876 .0255 6.140876 .0135 6.119876 .0135H5.855876C5.834876 .0135 5.822876 .0255 5.822876 .039 5.822876 .0705 5.887376 .105 5.887376 .165V.9705C5.887376 .9765 5.882876 .981 5.876876 .981H5.713376C5.707376 .981 5.702876 .9765 5.702876 .9705V.165C5.702876 .105 5.767376 .0705 5.767376 .039 5.767376 .0255 5.755376 .0135 5.734376 .0135H5.470376C5.449376 .0135 5.437376 .0255 5.437376 .039 5.437376 .0705 5.501876 .105 5.501876 .165V1.0305C5.501876 1.1085 5.566376 1.146 5.644376 1.146H5.939876C6.031376 1.146 6.088376 1.083 6.088376 1.023M6.891519 .729C6.891519 .7125 6.878019 .7005 6.866019 .7005 6.848019 .7005 6.731019 .78 6.707019 .798 6.695019 .807 6.690519 .8145 6.690519 .837V.9615C6.690519 .972 6.681519 .981 6.671019 .981H6.540519C6.530019 .981 6.521019 .972 6.521019 .9615V.198C6.521019 .1875 6.530019 .1785 6.540519 .1785H6.656019C6.666519 .1785 6.675519 .1875 6.675519 .198V.3885C6.675519 .405 6.689019 .417 6.701019 .417 6.719019 .417 6.836019 .3375 6.860019 .3195 6.872019 .3105 6.876519 .303 6.876519 .2805V.1365C6.876519 .075 6.816519 .0135 6.728019 .0135H6.462519C6.381519 .0135 6.320019 .054 6.320019 .129V1.0305C6.320019 1.1055 6.381519 1.146 6.462519 1.146H6.743019C6.834519 1.146 6.891519 1.0815 6.891519 1.0245M7.712587 .165C7.712587 .105 7.777087 .0705 7.777087 .039 7.777087 .0255 7.765087 .0135 7.744087 .0135H7.480087C7.459087 .0135 7.447087 .0255 7.447087 .039 7.447087 .0705 7.511587 .105 7.511587 .165V.579L7.274587 .69V.165C7.274587 .105 7.339087 .0705 7.339087 .039 7.339087 .0255 7.327087 .0135 7.306087 .0135H7.042087C7.021087 .0135 7.009087 .0255 7.009087 .039 7.009087 .0705 7.073587 .105 7.073587 .165V.9945C7.073587 1.0545 7.009087 1.089 7.009087 1.1205 7.009087 1.134 7.021087 1.146 7.042087 1.146H7.306087C7.327087 1.146 7.339087 1.134 7.339087 1.1205 7.339087 1.089 7.274587 1.0545 7.274587 .9945V.906L7.511587 .795V.9945C7.511587 1.0545 7.447087 1.089 7.447087 1.1205 7.447087 1.134 7.459087 1.146 7.480087 1.146H7.744087C7.765087 1.146 7.777087 1.134 7.777087 1.1205 7.777087 1.089 7.712587 1.0545 7.712587 .9945M8.08669 1.146H8.38219C8.47369 1.146 8.53069 1.0785 8.53069 1.017V.1425C8.53069 .0765 8.47219 .0135 8.38219 .0135H8.08669C8.00719 .0135 7.94419 .0555 7.94419 .135V1.0245C7.94419 1.1025 8.00569 1.146 8.08669 1.146M8.14519 .9705V.189C8.14519 .183 8.14969 .1785 8.15569 .1785H8.31919C8.32519 .1785 8.32969 .183 8.32969 .189V.9705C8.32969 .975 8.32519 .981 8.31919 .981H8.15569C8.14969 .981 8.14519 .975 8.14519 .9705M8.978302 1.146C9.002302 1.146 9.020302 1.131 9.020302 1.1085 9.020302 1.074 8.955802 1.038 8.955802 1.0065V.513L9.258802 1.104C9.272302 1.131 9.282802 1.146 9.323302 1.146H9.417802C9.450802 1.146 9.471802 1.125 9.471802 1.0935V.165C9.471802 .105 9.536302 .0705 9.536302 .039 9.536302 .0255 9.524302 .0135 9.503302 .0135H9.246802C9.225802 .0135 9.213802 .0255 9.213802 .039 9.213802 .0705 9.278302 .105 9.278302 .165V.696L8.976802 .06C8.967802 .039 8.957302 .0135 8.910802 .0135H8.730802C8.709802 .0135 8.697802 .0255 8.697802 .039 8.697802 .0705 8.762302 .105 8.762302 .165V.9945C8.762302 1.0545 8.697802 1.089 8.697802 1.1205 8.697802 1.134 8.709802 1.146 8.730802 1.146" fill="#0e1425"/>
<path transform="matrix(47.71602,0,0,47.71602,45.974626,386.27357)" d="M1.589967 2.187345C1.589967 2.172103 1.577496 2.161018 1.566411 2.161018 1.549784 2.161018 1.441705 2.234456 1.419535 2.251083 1.40845 2.259397 1.404293 2.266325 1.404293 2.28711V2.402117C1.404293 2.411816 1.395979 2.42013 1.38628 2.42013H1.26573C1.256031 2.42013 1.247717 2.411816 1.247717 2.402117V1.696833C1.247717 1.687134 1.256031 1.67882 1.26573 1.67882H1.372424C1.382123 1.67882 1.390437 1.687134 1.390437 1.696833V1.872808C1.390437 1.88805 1.402907 1.899135 1.413992 1.899135 1.43062 1.899135 1.538699 1.825697 1.560869 1.809069 1.571954 1.800755 1.57611 1.793827 1.57611 1.773043V1.640023C1.57611 1.583212 1.520685 1.526402 1.438934 1.526402H1.193678C1.118854 1.526402 1.062044 1.563813 1.062044 1.633095V2.465855C1.062044 2.535137 1.118854 2.572548 1.193678 2.572548H1.45279C1.537313 2.572548 1.589967 2.512967 1.589967 2.460313M1.840749 2.572548H2.113717C2.198241 2.572548 2.250894 2.510195 2.250894 2.453385V1.645565C2.250894 1.584598 2.196855 1.526402 2.113717 1.526402H1.840749C1.767311 1.526402 1.709115 1.565199 1.709115 1.638637V2.460313C1.709115 2.532365 1.765926 2.572548 1.840749 2.572548M1.894789 2.41043V1.68852C1.894789 1.682977 1.898946 1.67882 1.904488 1.67882H2.055521C2.061064 1.67882 2.065221 1.682977 2.065221 1.68852V2.41043C2.065221 2.414587 2.061064 2.42013 2.055521 2.42013H1.904488C1.898946 2.42013 1.894789 2.414587 1.894789 2.41043M2.615325 2.572548C2.637495 2.572548 2.654123 2.558692 2.654123 2.537908 2.654123 2.506038 2.594541 2.472783 2.594541 2.443685V1.987815L2.874437 2.533751C2.886908 2.558692 2.896607 2.572548 2.934019 2.572548H3.021313C3.051797 2.572548 3.071196 2.55315 3.071196 2.524052V1.66635C3.071196 1.610925 3.130778 1.579055 3.130778 1.549957 3.130778 1.537487 3.119693 1.526402 3.100294 1.526402H2.863352C2.843953 1.526402 2.832868 1.537487 2.832868 1.549957 2.832868 1.579055 2.89245 1.610925 2.89245 1.66635V2.156861L2.61394 1.569356C2.605626 1.549957 2.595926 1.526402 2.552972 1.526402H2.386697C2.367298 1.526402 2.356213 1.537487 2.356213 1.549957 2.356213 1.579055 2.415795 1.610925 2.415795 1.66635V2.4326C2.415795 2.488025 2.356213 2.519895 2.356213 2.548993 2.356213 2.561463 2.367298 2.572548 2.386697 2.572548M3.583876 1.67882C3.669784 1.67882 3.669784 1.687134 3.697497 1.717618 3.721053 1.74533 3.732138 1.756415 3.750151 1.756415 3.772321 1.756415 3.787563 1.741173 3.787563 1.719003V1.549957C3.787563 1.527787 3.772321 1.513931 3.750151 1.513931 3.741837 1.513931 3.727981 1.515317 3.704425 1.518088 3.676713 1.522245 3.640686 1.526402 3.618516 1.526402H3.363561C3.265182 1.526402 3.247169 1.513931 3.224999 1.513931 3.202829 1.513931 3.194515 1.52363 3.194515 1.5458V1.727317C3.194515 1.743945 3.204214 1.756415 3.219456 1.756415 3.238855 1.756415 3.251326 1.742559 3.281809 1.716232 3.312293 1.689905 3.320607 1.67882 3.398202 1.67882V2.4326C3.398202 2.488025 3.33862 2.519895 3.33862 2.548993 3.33862 2.561463 3.349705 2.572548 3.369104 2.572548H3.612974C3.632373 2.572548 3.643458 2.561463 3.643458 2.548993 3.643458 2.519895 3.583876 2.488025 3.583876 2.4326M4.247587 1.67882C4.261444 1.67882 4.266986 1.684363 4.266986 1.696833V1.93239C4.266986 1.942089 4.264215 1.953174 4.233731 1.973958L4.096554 2.068181V1.67882M4.451274 2.447842C4.441575 2.429829 4.383379 2.282953 4.326568 2.119449 4.390307 2.079266 4.45266 2.04324 4.45266 1.983658V1.658036C4.45266 1.566585 4.394464 1.525016 4.301627 1.525016L3.881782 1.526402C3.862384 1.526402 3.851299 1.537487 3.851299 1.549957 3.851299 1.579055 3.91088 1.610925 3.91088 1.66635V2.4326C3.91088 2.488025 3.851299 2.519895 3.851299 2.548993 3.851299 2.561463 3.862384 2.572548 3.881782 2.572548H4.125652C4.145051 2.572548 4.156136 2.561463 4.156136 2.548993 4.156136 2.519895 4.096554 2.488025 4.096554 2.4326V2.27741C4.096554 2.269097 4.09794 2.26494 4.102097 2.262168L4.153365 2.230299C4.153365 2.230299 4.250359 2.478326 4.250359 2.493568 4.250359 2.524052 4.218489 2.528208 4.218489 2.548993 4.218489 2.561463 4.23096 2.572548 4.250359 2.572548H4.490072C4.505314 2.572548 4.51917 2.561463 4.51917 2.548993 4.51917 2.518509 4.492843 2.52128 4.451274 2.447842M4.879465 2.199815 4.970917 1.810455 5.037427 2.115292M5.296539 2.402117C5.281297 2.346692 5.110865 1.66635 5.110865 1.623395 5.110865 1.597068 5.146891 1.56797 5.146891 1.551343 5.146891 1.536101 5.135806 1.526402 5.116407 1.526402H4.829583C4.810184 1.526402 4.799099 1.536101 4.799099 1.551343 4.799099 1.56797 4.835125 1.597068 4.835125 1.623395 4.835125 1.66635 4.64668 2.406273 4.635595 2.449228 4.623125 2.497725 4.569085 2.525437 4.569085 2.547607 4.569085 2.562849 4.58017 2.572548 4.599569 2.572548H4.84621C4.86838 2.572548 4.87808 2.561463 4.87808 2.547607 4.87808 2.525437 4.828197 2.507424 4.828197 2.453385V2.415973L5.078995 2.280182C5.078995 2.280182 5.124721 2.467241 5.124721 2.47694 5.124721 2.510195 5.088695 2.525437 5.088695 2.547607 5.088695 2.561463 5.098394 2.572548 5.120564 2.572548H5.347807C5.367205 2.572548 5.37829 2.562849 5.37829 2.547607 5.37829 2.525437 5.318709 2.48664 5.296539 2.402117M5.965787 2.187345C5.965787 2.172103 5.953316 2.161018 5.942231 2.161018 5.925604 2.161018 5.817525 2.234456 5.795355 2.251083 5.78427 2.259397 5.780113 2.266325 5.780113 2.28711V2.402117C5.780113 2.411816 5.771799 2.42013 5.7621 2.42013H5.64155C5.631851 2.42013 5.623537 2.411816 5.623537 2.402117V1.696833C5.623537 1.687134 5.631851 1.67882 5.64155 1.67882H5.748244C5.757943 1.67882 5.766257 1.687134 5.766257 1.696833V1.872808C5.766257 1.88805 5.778727 1.899135 5.789812 1.899135 5.80644 1.899135 5.914519 1.825697 5.936689 1.809069 5.947774 1.800755 5.95193 1.793827 5.95193 1.773043V1.640023C5.95193 1.583212 5.896505 1.526402 5.814754 1.526402H5.569498C5.494674 1.526402 5.437864 1.563813 5.437864 1.633095V2.465855C5.437864 2.535137 5.494674 2.572548 5.569498 2.572548H5.82861C5.913133 2.572548 5.965787 2.512967 5.965787 2.460313M6.432727 1.67882C6.518636 1.67882 6.518636 1.687134 6.546348 1.717618 6.569904 1.74533 6.580989 1.756415 6.599002 1.756415 6.621172 1.756415 6.636414 1.741173 6.636414 1.719003V1.549957C6.636414 1.527787 6.621172 1.513931 6.599002 1.513931 6.590688 1.513931 6.576832 1.515317 6.553276 1.518088 6.525564 1.522245 6.489537 1.526402 6.467367 1.526402H6.212412C6.114033 1.526402 6.09602 1.513931 6.07385 1.513931 6.05168 1.513931 6.043366 1.52363 6.043366 1.5458V1.727317C6.043366 1.743945 6.053066 1.756415 6.068307 1.756415 6.087706 1.756415 6.100177 1.742559 6.130661 1.716232 6.161144 1.689905 6.169458 1.67882 6.247053 1.67882V2.4326C6.247053 2.488025 6.187471 2.519895 6.187471 2.548993 6.187471 2.561463 6.198556 2.572548 6.217955 2.572548H6.461825C6.481224 2.572548 6.492309 2.561463 6.492309 2.548993 6.492309 2.519895 6.432727 2.488025 6.432727 2.4326M6.945405 1.66635C6.945405 1.610925 7.004987 1.579055 7.004987 1.549957 7.004987 1.537487 6.993902 1.526402 6.974503 1.526402H6.730633C6.711235 1.526402 6.70015 1.537487 6.70015 1.549957 6.70015 1.579055 6.759732 1.610925 6.759732 1.66635V2.4326C6.759732 2.488025 6.70015 2.519895 6.70015 2.548993 6.70015 2.561463 6.711235 2.572548 6.730633 2.572548H6.974503C6.993902 2.572548 7.004987 2.561463 7.004987 2.548993 7.004987 2.519895 6.945405 2.488025 6.945405 2.4326M7.341708 2.572548C7.363878 2.572548 7.380505 2.558692 7.380505 2.537908 7.380505 2.506038 7.320923 2.472783 7.320923 2.443685V1.987815L7.600819 2.533751C7.61329 2.558692 7.622989 2.572548 7.660401 2.572548H7.747696C7.778179 2.572548 7.797578 2.55315 7.797578 2.524052V1.66635C7.797578 1.610925 7.85716 1.579055 7.85716 1.549957 7.85716 1.537487 7.846075 1.526402 7.826676 1.526402H7.589734C7.570336 1.526402 7.559251 1.537487 7.559251 1.549957 7.559251 1.579055 7.618833 1.610925 7.618833 1.66635V2.156861L7.340322 1.569356C7.332008 1.549957 7.322309 1.526402 7.279354 1.526402H7.113079C7.093681 1.526402 7.082596 1.537487 7.082596 1.549957 7.082596 1.579055 7.142178 1.610925 7.142178 1.66635V2.4326C7.142178 2.488025 7.082596 2.519895 7.082596 2.548993 7.082596 2.561463 7.093681 2.572548 7.113079 2.572548M8.297787 1.85618C8.297787 1.871422 8.310258 1.882507 8.321343 1.882507 8.337971 1.882507 8.446049 1.809069 8.468219 1.792442 8.479304 1.784128 8.483461 1.7772 8.483461 1.756415V1.637252C8.483461 1.580441 8.428036 1.525016 8.346284 1.525016H8.094101C8.019277 1.525016 7.962466 1.561042 7.962466 1.630323V2.467241C7.962466 2.536522 8.019277 2.572548 8.094101 2.572548H8.367069C8.451592 2.572548 8.504246 2.514352 8.504246 2.461698V2.005828C8.504246 1.987815 8.494546 1.97673 8.477919 1.97673 8.451592 1.97673 8.301944 2.041854 8.268689 2.058482 8.252062 2.066795 8.242362 2.075109 8.242362 2.094508V2.217828C8.242362 2.235842 8.253447 2.246927 8.265918 2.246927 8.285317 2.246927 8.318572 2.230299 8.318572 2.230299V2.42013H8.166153C8.156454 2.42013 8.14814 2.411816 8.14814 2.402117V1.696833C8.14814 1.687134 8.156454 1.67882 8.166153 1.67882H8.297787"/>
<g mask="url(#mask_1)">
<g>
<g clip-path="url(#clip_3)">
<g mask="url(#mask_4)">
<g>
<g clip-path="url(#clip_6)">
<path transform="matrix(47.71602,0,0,47.71602,45.974626,386.27357)" d="M2.671686-3.286026C2.672955-4.220686 3.287596-5.043677 4.18344-5.310236V-5.540658C3.161693-5.268468 2.45068-4.343246 2.45068-3.285865 2.45068-2.228485 3.161693-1.303263 4.18344-1.031073V-1.261527C3.287544-1.528189 2.672912-2.351287 2.671686-3.286026Z" fill="#bf5000"/>
</g>
</g>
</g>
<g mask="url(#mask_7)">
<g>
<g clip-path="url(#clip_9)">
<path transform="matrix(47.71602,0,0,47.71602,45.974626,386.27357)" d="M7.116082-3.286026C7.115949-4.34766 6.399285-5.275426 5.372109-5.543707V-5.313285C6.27415-5.051439 6.894708-4.225127 6.894708-3.285849 6.894708-2.346572 6.27415-1.52026 5.372109-1.258414V-1.027992C6.399399-1.296326 7.116087-2.224268 7.116082-3.286026Z" fill="#bf5000"/>
</g>
</g>
</g>
<g mask="url(#mask_10)">
<g>
<g clip-path="url(#clip_12)">
<path transform="matrix(47.71602,0,0,47.71602,45.974626,386.27357)" d="M4.720417-6.762996C4.696505-6.723742 4.672754-6.684006 4.657604-6.65284 4.642455-6.621674 4.633564-6.599849 4.633564-6.599849 4.633564-6.599849 4.649612-6.616956 4.671695-6.643853 4.693777-6.67075 4.71984-6.708656 4.745517-6.74698 4.769654-6.78633 4.793277-6.825874 4.808394-6.857264 4.823512-6.888655 4.832467-6.910224 4.832467-6.910224 4.832467-6.910224 4.816194-6.893116 4.794304-6.866283 4.772414-6.83945 4.745998-6.801159 4.720417-6.762996Z" fill="#bf5000"/>
</g>
</g>
</g>
<g mask="url(#mask_13)">
<g>
<g clip-path="url(#clip_15)">
<path transform="matrix(47.71602,0,0,47.71602,45.974626,386.27357)" d="M6.237146-5.899563C6.144227-6.064604 5.665248-6.892506 5.376698-6.99053 5.17603-7.058542 4.861643-7.131755 4.646306-7.131755 4.540162-7.131755 4.462938-7.114262 4.409657-7.078282L4.395246-7.068364 4.384654-7.054338C4.350343-7.010237 4.228921-6.88368 4.123868-6.88368 4.10782-6.88368 4.058969-6.88368 3.999654-6.956411L3.967204-6.996243H3.482031V-6.063288H3.957062L3.989351-6.101162C4.024401-6.141861 4.139467-6.247844 4.245932-6.247844 4.265639-6.247844 4.322033-6.247844 4.388794-6.16818V-5.760873H4.435527C4.461654-5.480798 4.453854-4.898435 4.416269-4.50769 4.366327-4.498478 4.323189-4.490165 4.293243-4.484324 4.23319-4.514077 4.112699-4.573392 4.047478-4.602407 4.016013-4.616172 3.982-4.62315 3.947657-4.622885 3.876648-4.618282 3.80724-4.599742 3.743394-4.568321 3.716946-4.557344 3.692039-4.546944 3.670984-4.540685 3.535664-4.499891 3.503183-4.37099 3.489285-4.316009 3.48845-4.312799 3.487487-4.308883 3.486556-4.305385 3.477313-4.298965 3.461264-4.289336 3.447784-4.281023 3.421849-4.265392 3.389657-4.245909 3.351269-4.219077 3.191492-4.107316 3.223139-3.837479 3.263292-3.743789 3.266502-3.736439 3.270481-3.726713 3.275103-3.715255L3.27122-3.710376 3.279148-3.705273C3.312079-3.623587 3.369885-3.473952 3.38298-3.439897L3.467074-3.094056C3.472437-3.072175 3.484046-3.052326 3.500486-3.036923L3.494484-3.029445 3.563877-2.98451 3.56821-2.992919 3.711105-2.907124C3.729202-2.896251 3.749916-2.890504 3.771029-2.890498 3.774881-2.890498 3.778765-2.890691 3.782648-2.891076L3.922494-2.90507C3.922044-2.900902 3.921819-2.896713 3.92182-2.89252V-2.568055C3.921804-2.547796 3.92707-2.527884 3.937098-2.510281L3.946727-2.493462C3.912479-2.439604 3.91922-2.363567 3.934787-2.2286 3.937611-2.204143 3.941206-2.171821 3.942105-2.156768 3.926056-2.069593 4.01092-2.018945 4.068341-1.984698 4.109328-1.960272 4.166525-1.928753 4.238453-1.891072 4.297543-1.860034 4.357211-1.829735 4.402917-1.806754 4.407507-1.726705 4.411519-1.669669 4.414311-1.64367 4.432959-1.470605 4.359747-.705677 4.329929-.425408L4.320974-.340866 4.400895-.312171C4.524152-.270755 4.65333-.24968 4.783359-.249775H4.808747C4.938812-.249731 5.068014-.270882 5.191276-.312396L5.271164-.34109 5.262177-.425633C5.232392-.705901 5.159147-1.470958 5.177891-1.643799 5.180876-1.671723 5.185274-1.735339 5.190313-1.824985 5.226069-1.844692 5.260155-1.865683 5.286378-1.882759L5.355547-1.871236C5.361913-1.870194 5.368353-1.869668 5.374805-1.869663 5.385439-1.869659 5.396023-1.871117 5.406259-1.873996 5.496804-1.899385 5.652216-1.942009 5.6838-1.9483 5.71702-1.954944 5.78622-1.968778 5.916886-2.218458 5.927052-2.237922 5.931503-2.259866 5.929724-2.281753 5.922856-2.367419 5.912232-2.511244 5.911108-2.552745 5.9359-2.62021 5.968989-2.684329 6.009613-2.743624 6.086998-2.840235 6.063535-3.048542 6.009934-3.141623 5.996806-3.164636 5.984802-3.187906 5.975013-3.207838 6.076176-3.377561 6.086906-3.586318 6.003675-3.765518 5.963286-3.837764 5.906381-3.899431 5.837607-3.945484 5.843385-3.982861 5.852802-4.019583 5.865724-4.055127 5.873391-4.076034 5.874906-4.098702 5.870089-4.120444 5.848135-4.219366 5.727932-4.408608 5.691599-4.464231 5.663859-4.506804 5.611679-4.52642 5.562763-4.512665 5.546685-4.508452 5.530114-4.506423 5.513494-4.506631 5.415439-4.506631 5.296938-4.565336 5.26314-4.585878 5.234626-4.603742 5.199562-4.607754 5.167749-4.59679 5.137-4.982432 5.132025-5.501275 5.156258-5.760809H5.218012L5.23634-5.846379C5.253854-5.931201 5.263524-6.017456 5.265227-6.104051 5.265227-6.191579 5.283907-6.236386 5.292894-6.24441 5.360971-6.242452 5.579582-6.242452 6.022227-5.668531L6.148816-5.504517 6.211052-5.702104 6.246166-5.813961 6.26032-5.858897ZM3.477056-3.519786 3.472594-3.531341 3.491596-3.538049ZM3.509762-3.411749 3.593214-3.573965 3.696597-3.610459 3.722275-3.585039 3.527062-3.340077ZM3.872936-3.108531C3.793911-3.098009 3.713757-3.099361 3.635132-3.112543 3.788201-3.18046 3.834131-3.280698 3.834131-3.280698 3.784123-3.240727 3.728064-3.208981 3.668063-3.186655L3.756457-3.358179 3.596969-3.158185C3.58856-3.154975 3.580632-3.152022 3.573506-3.149422L3.549819-3.2469 3.723526-3.583915 3.863147-3.445707 3.738419-3.688294 3.642739-3.66971 3.727378-3.833916 3.588078-3.659118 3.487423-3.639571 3.717653-4.086164 3.407759-3.697409C3.396461-3.725911 3.386158-3.751717 3.378166-3.771232L3.485594-3.9797 3.359999-3.822073C3.351129-3.85921 3.346818-3.89729 3.34716-3.93547L3.348862-3.925841C3.348862-3.925841 3.416907-4.115212 3.543014-4.135144 3.669122-4.155076 3.941013-4.214712 3.979754-3.935855 4.018495-3.656999 4.066961-3.208288 3.872936-3.108531ZM4.115363-2.789554C4.115363-2.789554 4.14104-2.894575 4.224491-2.899518L4.116486-2.763941ZM4.124992-2.311121C4.124992-2.311121 4.14425-2.390881 4.192972-2.390881 4.201382-2.390881 4.225807-2.392133 4.260376-2.394091L4.134139-2.235565C4.130609-2.274499 4.125152-2.311121 4.125152-2.311121ZM4.853137-.452723C4.86068-.461357 4.869635-.47182 4.880387-.484819 4.906418-.516499 4.936877-.561177 4.967241-.60592 4.995454-.6523 5.023025-.698712 5.041063-.735462 5.059102-.772213 5.069276-.797858 5.069276-.797858 5.069276-.797858 5.050275-.777798 5.024341-.746183 4.998407-.714567 4.967851-.669889 4.93768-.624986 4.909403-.578766 4.881639-.53229 4.863857-.495443 4.855384-.477951 4.848644-.463347 4.843861-.452434 4.832692-.452434 4.822645-.452434 4.815873-.452434 4.771434-.451918 4.727008-.454234 4.682864-.459367L4.97748-.979558 4.611577-.470408C4.577046-.476895 4.542939-.48547 4.509446-.496085L4.94917-1.274719 4.511083-.667482C4.520102-.736008 4.52803-.805658 4.536022-.874698L4.871304-1.487745C4.937059-1.491502 5.002546-1.499004 5.067447-1.510212 5.074059-1.228885 5.124515-.709015 5.145442-.502697 5.051144-.471367 4.952646-.454497 4.853298-.452658ZM4.560768-1.099375C4.566835-1.169313 4.573928-1.239701 4.580026-1.309769L4.672337-1.478597C4.725874-1.480138 4.787339-1.482577 4.848258-1.486364ZM5.178886-4.474566 5.202638-4.486442 5.204724-4.48519 5.206201-4.484356C5.207485-4.483618 5.209122-4.482655 5.211079-4.481595L5.214289-4.479702 5.221286-4.475882 5.226037-4.473347C5.228957-4.471774 5.232263-4.470137 5.235666-4.46834L5.241186-4.465515C5.245455-4.463365 5.250141-4.461086 5.25502-4.458743L5.259385-4.456624C5.265804-4.453415 5.273026-4.450205 5.280505-4.446995 5.281756-4.446418 5.283137-4.445872 5.28442-4.445326 5.290615-4.442598 5.297066-4.439902 5.303678-4.437174 5.30631-4.436082 5.309071-4.435055 5.311767-4.433964 5.317437-4.431824 5.323247-4.42961 5.329195-4.42732 5.332405-4.426132 5.335615-4.424977 5.339049-4.423821 5.344858-4.421767 5.350828-4.419777 5.356863-4.417819 5.360361-4.416696 5.363828-4.415573 5.36739-4.41461 5.37381-4.412652 5.380422-4.410822 5.387034-4.408993 5.390243-4.408126 5.393453-4.407195 5.396663-4.406329 5.405457-4.404082 5.414412-4.40206 5.423495-4.400198 5.424683-4.399941 5.425838-4.399621 5.427058-4.399396 5.437297-4.397374 5.447696-4.395673 5.458192-4.39426 5.460984-4.393875 5.463841-4.393651 5.46673-4.39333 5.474304-4.392463 5.481911-4.391725 5.48955-4.391243 5.493306-4.391019 5.497029-4.390954 5.500784-4.390826 5.504539-4.390698 5.509065-4.390345 5.513174-4.390345 5.515131-4.390345 5.517057-4.390666 5.518951-4.390698 5.527553-4.390698 5.536058-4.391436 5.544628-4.392238 5.548705-4.392623 5.552813-4.392848 5.556857-4.393362 5.56927-4.394945 5.58156-4.397379 5.59364-4.400648 5.605719-4.403916 5.736887-4.181203 5.755953-4.09528 5.745866-4.066779 5.737369-4.03774 5.7305-4.008298L5.72591-4.011251 5.454597-3.484704 5.75499-3.861712C5.765967-3.853367 5.777875-3.84438 5.790007-3.834879L5.648782-3.560709 5.835938-3.795529C5.861609-3.772053 5.883005-3.744293 5.899168-3.71349 5.972711-3.550081 5.950712-3.359503 5.841876-3.217146 5.733039-3.07479 5.870506-3.150514 5.908637-3.083624 5.946768-3.016735 5.956397-2.863954 5.918266-2.816387 5.87952-2.761133 5.846493-2.702082 5.819697-2.640144L5.64875-2.30865 5.797101-2.49481C5.802461-2.407636 5.813149-2.272509 5.813149-2.272509 5.813149-2.272509 5.708289-2.072129 5.660433-2.062596 5.612577-2.053064 5.374259-1.986206 5.374259-1.986206L5.259706-2.005272C5.259706-2.005272 5.233387-1.987201 5.197278-1.964766 5.161394-1.942098 5.124311-1.921387 5.086191-1.902723 5.068365-1.893844 5.049741-1.886666 5.030568-1.881282 5.028193-1.880704 5.025464-1.880127 5.022383-1.879581 5.020008-1.879164 5.017248-1.878747 5.014487-1.878361L5.012401-1.87804C5.01009-1.877719 5.007426-1.877431 5.004858-1.877142L5.000589-1.876628 4.993079-1.875954 4.987237-1.875408 4.979566-1.874799 4.972344-1.874285 4.966214-1.873932 4.956039-1.87329 4.950679-1.873033 4.938835-1.872456 4.928211-1.872038 4.92054-1.871749C4.916945-1.871749 4.91319-1.871493 4.909531-1.871396L4.901186-1.871108 4.893001-1.870883H4.886582 4.880901 4.876022L4.860423-1.870562H4.854582 4.849607 4.839624L4.825855-1.870401H4.818152C4.814717-1.870401 4.811251-1.870401 4.807849-1.870401H4.795973 4.790067 4.774468 4.71143 4.694226 4.691017 4.677857 4.670828 4.656256 4.65218L4.635618-1.870594H4.634174 4.624545 4.622522 4.616873L4.591196-1.870979H4.586542 4.583332L4.570494-1.871204 4.54533-1.871653H4.544495L4.534642-1.871846C4.534642-1.871846 4.473658-1.901728 4.395631-1.941528 4.344276-1.967622 4.285764-1.997954 4.231938-2.027065L4.348545-2.262013 4.182284-2.059804C4.169117-2.076581 4.157168-2.09428 4.146529-2.112763L4.292761-2.396627C4.317347-2.398199 4.345496-2.400061 4.375538-2.402147 4.451383-2.407443 4.540451-2.414151 4.623774-2.421181 4.675129-2.425482 4.72398-2.429943 4.766091-2.434212 4.791768-2.436812 4.814814-2.439379 4.834361-2.441819 4.853767-2.443876 4.873051-2.446951 4.892135-2.45103 4.96424-2.465265 5.037834-2.470483 5.111227-2.466565 5.125681-2.466325 5.140064-2.464473 5.154108-2.461045 5.182192-2.451416 5.219328-2.534289 5.221896-2.540099L5.222121-2.540644 5.3386-2.660365C5.3386-2.660365 5.289492-2.636967 5.224239-2.608561 5.190505-2.593861 5.152567-2.577941 5.114629-2.56308 5.061541-2.5408 5.006579-2.523282 4.95039-2.51073 4.931581-2.507521 4.902245-2.504086 4.866586-2.500556 4.849574-2.498855 4.831279-2.497121 4.811636-2.49542 4.764615-2.49128 4.71143-2.487139 4.657765-2.483223 4.54809-2.475199 4.436875-2.46817 4.373292-2.464286L4.326238-2.461462 4.348706-2.504889 4.313784-2.461045H4.193069L4.188736-2.466116 4.338659-2.757105 4.146368-2.515737 4.125088-2.540644 4.121365-2.635137 4.257262-2.898202C4.291298-2.897644 4.325333-2.89937 4.359137-2.903369 4.466757-2.914475 4.591068-2.938964 4.591068-2.938964L4.611738-2.945223 4.713613-2.976132 4.806116-3.004121 4.959634-3.050693 4.969873-3.053903 5.017954-3.068507 5.129169-3.098036 5.237976-3.126923 5.318764-3.148395 5.406324-3.307755C5.406324-3.307755 5.320786-3.260477 5.23971-3.215092 5.197984-3.19163 5.157382-3.168809 5.130356-3.153146 5.119829-3.147047 5.111098-3.141944 5.105481-3.138445 5.072197-3.117936 4.943875-3.088214 4.841197-3.068218 4.816001-3.063339 4.792667-3.059102 4.772382-3.055636 4.754247-3.052587 4.738456-3.050115 4.726869-3.048639 4.711944-3.046713 4.690503-3.044819 4.66566-3.04299 4.561475-3.035222 4.396947-3.028643 4.396947-3.028643H4.22218L4.205651-3.040807 4.319273-3.261311 4.166557-3.069566 4.15436-3.078521 4.129325-3.163834 4.30958-3.513688 4.128875-3.286892 4.131571-3.364566 4.134781-3.362576 4.233543-3.554258C4.247387-3.565035 4.263392-3.572698 4.280468-3.576726 4.293949-3.579037 4.318567-3.584044 4.348834-3.590335 4.438352-3.608886 4.579192-3.63848 4.646499-3.645156 4.655036-3.64599 4.662836-3.646568 4.66871-3.646568 4.720635-3.655166 4.771578-3.668907 4.820784-3.687588 4.839592-3.693814 4.8593-3.700426 4.87936-3.707455 4.970418-3.738942 5.069437-3.775661 5.133566-3.799798 5.175292-3.815557 5.20251-3.825988 5.20251-3.825988L5.239613-3.890824 5.299538-3.995491C5.299538-3.995491 5.278001-3.982203 5.237399-3.959767 5.210341-3.944778 5.174714-3.925745 5.131255-3.903727 5.078937-3.877215 5.015322-3.84653 4.941307-3.813567 4.930394-3.808688 4.919267-3.803778 4.907926-3.798835L4.901667-3.796074C4.832963-3.766877 4.762228-3.742709 4.690022-3.723761 4.645536-3.711788 4.602173-3.701678 4.561635-3.693301 4.552006-3.691343 4.542698-3.689449 4.533454-3.687684 4.448976-3.671186 4.380899-3.66236 4.348898-3.658797 4.33606-3.65732 4.328934-3.656646 4.328934-3.656646 4.328934-3.656646 4.31234-3.658508 4.289487-3.663066L4.350054-3.7807 4.377432-3.833788 4.350343-3.799798 4.249398-3.673016C4.22643-3.679254 4.204561-3.688998 4.184563-3.701903L4.358238-4.039175 4.377496-4.076407 4.359169-4.053361 4.154842-3.796909C4.153429-3.824705 4.149385-3.859144 4.144185-3.894868L4.367803-4.328783 4.122617-4.021265C4.113373-4.069731 4.105766-4.105037 4.105766-4.105037 4.105766-4.105037 4.18344-4.34419 4.309548-4.364282 4.335706-4.368423 4.367835-4.374296 4.402114-4.380972 4.45899-4.392046 4.521643-4.40527 4.574955-4.416824L4.591004-4.420291 4.600087-4.421831 4.608496-4.423244 4.629584-4.426742 4.634559-4.427545H4.635072L4.655293-4.430754 4.662162-4.431878C4.679847-4.43467 4.697276-4.437366 4.714223-4.439838H4.715282C4.719069-4.440415 4.722793-4.440929 4.726548-4.441443 4.730817-4.442084 4.735118-4.442726 4.739387-4.443304L4.743206-4.44385 4.763331-4.446578 4.76975-4.447445 4.786312-4.449531 4.793566-4.450397C4.798412-4.451007 4.803195-4.451585 4.807945-4.452099 4.810609-4.45242 4.813177-4.452644 4.815777-4.452933L4.828423-4.454281 4.836062-4.454987C4.839849-4.45534 4.843604-4.455693 4.847199-4.455982L4.854549-4.456528C4.857984-4.456785 4.861322-4.457042 4.864531-4.457234L4.871208-4.457555 4.879874-4.45794H4.885908C4.888155-4.45794 4.890305-4.45794 4.892327-4.45794 4.897719-4.45794 4.902694-4.45794 4.906835-4.457362L4.911553-4.456977C4.915854-4.456592 4.920187-4.456207 4.924392-4.455886 4.979117-4.451457 5.034451-4.449467 5.07332-4.4486 5.105417-4.44783 5.126248-4.44783 5.126248-4.44783ZM4.594951-4.984005C4.594951-5.033466 4.59463-5.083055 4.59126-5.132709L4.590522-5.152898 4.979727-5.760873H5.047964C5.023346-5.481632 5.030664-4.952037 5.0626-4.565753 5.022255-4.566844 4.968268-4.569123 4.917331-4.573745 4.909338-4.574483 4.90048-4.574868 4.890466-4.574868 4.858378-4.574194 4.826346-4.571869 4.794497-4.567903L4.932994-4.824677 4.734283-4.560297C4.698239-4.555386 4.659851-4.549576 4.620693-4.543285L4.955526-5.16702 4.590394-4.683002C4.590394-4.71757 4.590971-4.752299 4.592448-4.787092 4.59463-4.78998 4.597904-4.791168 4.59967-4.794442L4.964192-5.473094ZM6.107829-5.73465C6.074898-5.777467 6.04325-5.816529 6.012373-5.853408 5.387836-6.625686 5.392586-6.444597 5.283233-6.457724 5.222249-6.464722 5.189864-6.348307 5.172884-6.237252 5.161901-6.193773 5.156603-6.149053 5.157125-6.104212 5.157125-6.095674 5.15674-6.086911 5.156451-6.078181 5.155199-6.058249 5.15475-6.045507 5.15475-6.045507L5.143131-5.960226H4.853747C4.86068-5.967801 4.875348-5.984266 4.894221-6.007119 4.920059-6.038831 4.950711-6.083413 4.980882-6.128412 5.009095-6.174632 5.036923-6.221108 5.054704-6.257955 5.072486-6.294802 5.082821-6.320254 5.082821-6.320254 5.082821-6.320254 5.063884-6.300194 5.038046-6.268579 5.012208-6.236963 4.981363-6.192317 4.951193-6.147317 4.923108-6.10113 4.895376-6.054526 4.87737-6.017743 4.864082-5.990557 4.854902-5.969277 4.851179-5.960226H4.730239L5.052201-6.55992 4.614948-5.98035 4.602366-6.112364 5.00412-6.860442 4.584071-6.303917 4.524242-6.932755 4.467399-6.335211 4.432285-6.368688C4.420394-6.379697 4.407188-6.389195 4.392967-6.396965L4.370917-6.746177 4.350022-6.419562C4.347839-6.420364 4.346266-6.422033 4.344019-6.422771 4.3276-6.430032 4.310432-6.435468 4.292825-6.43898 4.288588-6.439782 4.28448-6.439686 4.280211-6.44036L4.26243-6.644944 4.245065-6.443955C4.225375-6.444882 4.205643-6.444313 4.18604-6.442254 4.17962-6.441355 4.174035-6.438466 4.167777-6.437407L4.154135-6.593654 4.139852-6.429736C4.113772-6.423173 4.088318-6.414334 4.063783-6.403321L4.045745-6.711192 4.026487-6.383806C4.017564-6.378831 4.007614-6.374851 3.999076-6.369394 3.990539-6.363938 3.982579-6.357005 3.974234-6.350939L3.937354-6.824204 3.895629-6.287419C3.888471-6.280775 3.880896-6.274324 3.873931-6.267231 3.818404-6.266524 3.762973-6.265465 3.707574-6.264374L3.864238-6.279074 3.642771-6.299712C3.641744-6.320896 3.640107-6.341855 3.638984-6.362943L3.844402-6.383003 3.636641-6.40316C3.635581-6.423798 3.634394-6.444212 3.632949-6.46485L3.824695-6.486804 3.630317-6.509272C3.628809-6.529589 3.628295-6.549649 3.626594-6.569678L3.798472-6.590637 3.62194-6.612206C3.619726-6.63615 3.616163-6.660126 3.613788-6.684263L3.778733-6.694662 3.611413-6.705511C3.604993-6.766495 3.599665-6.827189 3.59055-6.888013H3.915914C3.983092-6.805588 4.055053-6.775482 4.123868-6.775482 4.307493-6.775482 4.470513-6.988796 4.470513-6.988796 4.506942-7.013447 4.56937-7.023782 4.64637-7.023782 4.848579-7.023782 5.150834-6.952912 5.34197-6.888173 5.606029-6.798656 6.143071-5.846603 6.143071-5.846603Z" fill="#bf5000"/>
</g>
</g>
</g>
<g mask="url(#mask_16)">
<g>
<g clip-path="url(#clip_18)">
<path transform="matrix(47.71602,0,0,47.71602,45.974626,386.27357)" d="M5.537471-2.879297C5.553005-2.89634 5.570049-2.916946 5.587221-2.939703 5.595566-2.951225 5.605002-2.96262 5.613123-2.975009L5.638543-3.012434 5.662263-3.05095C5.670287-3.063532 5.676899-3.076627 5.683992-3.089113 5.697697-3.114084 5.709669-3.138092 5.718721-3.159212 5.729545-3.182756 5.738653-3.207052 5.745971-3.231911 5.726274-3.215092 5.707834-3.196855 5.690797-3.177346 5.675262-3.160303 5.658251-3.139697 5.641047-3.116941 5.632669-3.105418 5.623329-3.093991 5.615113-3.081634L5.58966-3.044209 5.565908-3.005693C5.557788-2.993176 5.551272-2.980016 5.544179-2.967563 5.530442-2.942591 5.518502-2.918615 5.509418-2.897463 5.498608-2.873913 5.489532-2.849605 5.482264-2.824732 5.501971-2.841552 5.520422-2.859788 5.537471-2.879297Z" fill="#bf5000"/>
</g>
</g>
</g>
<g mask="url(#mask_19)">
<g>
<g clip-path="url(#clip_21)">
<path transform="matrix(47.71602,0,0,47.71602,45.974626,386.27357)" d="M5.341906-2.353521C5.33573-2.336905 5.331288-2.319695 5.32865-2.302166 5.343525-2.311754 5.357378-2.322843 5.36999-2.335258 5.423413-2.387348 5.464439-2.450784 5.490032-2.520873 5.496207-2.537494 5.50067-2.554701 5.503352-2.572228 5.488502-2.562619 5.474672-2.55152 5.462076-2.539104 5.435249-2.513297 5.411549-2.484425 5.391463-2.453085 5.371052-2.42198 5.354416-2.388557 5.341906-2.353521Z" fill="#bf5000"/>
</g>
</g>
</g>
<g mask="url(#mask_22)">
<g>
<g clip-path="url(#clip_24)">
<path transform="matrix(47.71602,0,0,47.71602,45.974626,386.27357)" d="M4.411326-2.181322C4.402082-2.167071 4.393769-2.152435 4.386227-2.137959 4.376596-2.119909 4.368376-2.101141 4.361641-2.081822 4.35545-2.065209 4.350997-2.047999 4.348353-2.030468 4.363207-2.040033 4.377038-2.051101 4.389629-2.063495 4.416522-2.089252 4.440229-2.118142 4.460242-2.149546 4.480646-2.180641 4.497302-2.21404 4.509863-2.249046 4.516052-2.265665 4.520526-2.282872 4.523215-2.300401 4.508366-2.290792 4.494535-2.279694 4.481939-2.267277 4.455084-2.24152 4.431381-2.212666 4.411326-2.181322Z" fill="#bf5000"/>
</g>
</g>
</g>
</g>
</g>
</g>
</g>
</g>
</svg>
